<?xml version="1.0" encoding="UTF-8"?>
<svg id="Calque_2" data-name="Calque 2" xmlns="http://www.w3.org/2000/svg" viewBox="0 0 164.31 80.9">
  <g id="Calque_1-2" data-name="Calque 1">
    <g>
      <g>
        <path d="m0,32.59h11.5c2.5,0,4.38.62,5.63,1.85,1.25,1.24,1.87,2.99,1.87,5.27s-.68,4.17-2.04,5.49c-1.36,1.32-3.43,1.98-6.22,1.98h-3.79v8.61H0v-23.21Zm6.95,9.89h1.69c1.33,0,2.27-.24,2.81-.72.54-.48.81-1.09.81-1.84s-.23-1.35-.7-1.85-1.35-.76-2.64-.76h-1.97v5.18Z" stroke-width="0"/>
        <path d="m20.36,32.59h7.68l4.51,7.83,4.52-7.83h7.64l-8.7,13.49v9.72h-6.93v-9.72l-8.72-13.49Z" stroke-width="0"/>
        <path d="m47.04,55.79v-23.21h11.53c2.14,0,3.77.19,4.9.57,1.13.38,2.04,1.08,2.73,2.11.69,1.03,1.04,2.28,1.04,3.76,0,1.29-.27,2.4-.79,3.33-.53.93-1.26,1.69-2.18,2.27-.59.37-1.4.68-2.43.92.82.29,1.42.57,1.8.86.26.19.62.6,1.11,1.22.48.62.81,1.1.97,1.44l3.35,6.72h-7.82l-3.7-7.09c-.47-.92-.89-1.51-1.25-1.79-.5-.36-1.06-.54-1.69-.54h-.61v9.42h-6.95Zm6.95-13.8h2.92c.32,0,.93-.11,1.83-.32.46-.09.83-.34,1.12-.73.29-.39.44-.84.44-1.35,0-.75-.23-1.32-.69-1.73s-1.32-.6-2.58-.6h-3.04v4.72Z" stroke-width="0"/>
        <path d="m85.03,51.96h-7.85l-1.09,3.83h-7.06l8.41-23.21h7.55l8.41,23.21h-7.24l-1.12-3.83Zm-1.44-5.02l-2.47-8.34-2.45,8.34h4.92Z" stroke-width="0"/>
        <path d="m95.52,32.59h9.1l3.51,14.12,3.48-14.12h9.09v23.21h-5.67v-17.7l-4.37,17.7h-5.13l-4.36-17.7v17.7h-5.67v-23.21Z" stroke-width="0"/>
        <path d="m142.96,32.59h10.28c2.03,0,3.66.28,4.91.85,1.25.57,2.28,1.39,3.09,2.45.81,1.07,1.4,2.31,1.77,3.72.37,1.41.55,2.91.55,4.5,0,2.48-.27,4.4-.82,5.77s-1.3,2.51-2.27,3.43-2.01,1.54-3.12,1.84c-1.52.42-2.89.63-4.12.63h-10.28v-23.21Zm6.92,5.26v12.68h1.69c1.45,0,2.47-.17,3.08-.5s1.09-.91,1.44-1.74.52-2.17.52-4.03c0-2.46-.39-4.14-1.16-5.05-.77-.91-2.06-1.36-3.85-1.36h-1.73Z" stroke-width="0"/>
        <g>
          <polygon points="128.48 52.91 145.4 25.88 132.55 12.42 128.48 52.91" fill="#07a968" stroke-width="0"/>
          <polygon points="118.14 20.4 128.48 52.91 132.55 12.42 118.14 20.4" fill="#1a6042" stroke-width="0"/>
          <circle cx="134.49" cy="4.23" r="4.23" stroke-width="0"/>
        </g>
      </g>
      <g>
        <path d="m100.22,66.77c.71.37,1.23.86,1.57,1.48.34.62.49,1.31.45,2.05-.03.75-.24,1.54-.62,2.38-.38.84-.89,1.67-1.54,2.47-.64.81-1.45,1.57-2.41,2.29-.96.72-2,1.35-3.13,1.88-1.12.53-2.39.94-3.81,1.22-1.41.28-2.86.39-4.33.32-.87-.05-1.67-.15-2.4-.32-.73-.17-1.35-.37-1.85-.6-.51-.23-.97-.52-1.38-.86-.41-.34-.75-.66-1-.97s-.48-.66-.68-1.06c-.2-.4-.35-.74-.44-1.01-.09-.27-.19-.58-.3-.91-.07-.6.21-1.05.83-1.33.49-.23.93-.26,1.34-.1.51.22.59.65.24,1.3-.08.14-.18.28-.3.44.78,2.4,2.26,3.75,4.44,4.07,1.82.26,3.85-.21,6.12-1.4,2.01-1.06,3.72-2.43,5.11-4.11,1.59-1.91,2.29-3.65,2.09-5.22-.03-.25-.08-.48-.16-.7-.22-.65-.84-.96-1.85-.92-.99.35-2.08.66-3.3.95-.41.1-.76.12-1.07.04l-.38-.1c-.16-.04-.24-.12-.26-.24-.01-.12.05-.21.2-.27.78-.29,1.54-.63,2.29-1,.75-.38,1.43-.76,2.05-1.15.62-.39,1.2-.81,1.74-1.24.54-.43.99-.84,1.35-1.24.36-.4.66-.79.9-1.17.24-.38.36-.72.36-1.03s-.09-.58-.26-.8c-.32-.37-.98-.25-2,.34-1.02.59-2.08,1.39-3.2,2.4s-2.04,1.88-2.8,2.62-1.19,1.16-1.29,1.29l-.95,1.13h0c-.93,1.47-1.76,2.82-2.47,4.04-.71,1.22-1.24,2.18-1.59,2.88-.35.7-.63,1.29-.84,1.77s-.33.82-.38.99l-.06.25c-.68-.19-1.26-.56-1.73-1.11-.47-.55-.69-1.08-.68-1.61.12-.5.31-1.07.57-1.7.26-.63.57-1.27.93-1.9.36-.64.75-1.31,1.17-2.01.43-.71.87-1.39,1.31-2.05s.89-1.32,1.32-1.98c.43-.66.84-1.29,1.22-1.87.38-.58.72-1.13,1.01-1.66.29-.53.51-.99.67-1.38s.23-.73.23-1-.12-.46-.33-.56c-.2-.09-.56-.07-1.08.08-.52.14-1.1.37-1.75.67-.65.31-1.32.69-2.01,1.15-.7.46-1.33.93-1.9,1.43s-1.03,1.02-1.38,1.59c-.35.56-.5,1.08-.46,1.56.03.12.14.2.33.23s.37.02.51-.05c.24-.08.49-.22.75-.41.26-.19.49-.36.68-.52.19-.16.43-.3.72-.41.29-.11.59-.16.91-.13.91.19,1.28.54,1.12,1.03-.16.44-.66.83-1.5,1.18-1.17.49-2.37.61-3.61.37-.38-.07-.75-.18-1.11-.33-.54-.2-.91-.47-1.12-.8-.21-.33-.27-.68-.17-1.05.1-.37.27-.73.5-1.06.24-.34.53-.66.87-.96,1.29-1.24,3.01-2.28,5.15-3.14,2.14-.86,3.99-1.24,5.54-1.15,1.54.09,2.39.66,2.57,1.72.11.72-.12,1.64-.69,2.76.88-.82,1.78-1.55,2.7-2.18s1.86-1.1,2.81-1.43c.95-.33,1.77-.39,2.44-.2.33.11.64.3.94.58s.55.61.75,1c.2.39.29.83.26,1.33-.03.49-.17,1-.42,1.51s-.72,1.05-1.4,1.61c-.68.56-1.55,1.09-2.58,1.57.72.06,1.35.21,1.87.45Z" fill="#07a968" stroke-width="0"/>
        <path d="m110.13,71.32c-.09-.03.03-.54.38-1.54.34-1,.43-1.53.28-1.59-.25.1-.61.6-1.09,1.5s-1.04,1.98-1.71,3.25c-.67,1.27-1.27,2.25-1.83,2.95-.16.21-.44.35-.84.43s-.81.09-1.21.05c-.95-.1-1.54-.42-1.79-.95-.24-.53-.19-1.26.15-2.2.08-.24.22-.67.42-1.29.2-.62.38-1.15.52-1.59s.3-.91.46-1.42c.16-.5.29-.9.37-1.18.08-.28.11-.43.1-.45-.08-.09-.02-.19.19-.31.2-.11.4-.2.6-.25.26-.07.57-.11.93-.12.35,0,.69.01,1.01.07.32.06.57.16.75.32.18.16.24.35.18.57-.21.7-.59,1.7-1.12,3.02s-.96,2.38-1.25,3.19-.37,1.22-.23,1.23c.08,0,.46-.61,1.15-1.85.69-1.24,1.36-2.48,2-3.73.03-.04.07-.12.12-.23.1-.19.19-.34.25-.46.06-.11.15-.28.28-.49s.24-.38.35-.5c.1-.12.24-.27.41-.44.17-.17.33-.3.48-.38s.33-.17.55-.23c.22-.07.44-.1.66-.08.22.01.47.06.75.14.28.08.57.21.87.37.58.33.78,1.05.61,2.16-.08.23-.18.46-.32.69-.13.23-.31.46-.53.71-.22.24-.47.43-.75.56s-.6.22-.97.27-.76-.01-1.18-.18Z" fill="#07a968" stroke-width="0"/>
        <path d="m123.92,69.89c.13-.14.34-.2.61-.18.34.02.44.17.3.45-.05.1-.14.21-.26.33-1.05,1.12-2.2,1.57-3.43,1.35-.16.39-.29.71-.39.95-.11.24-.28.6-.52,1.08s-.52.9-.83,1.24c-.31.34-.63.6-.96.78-.71.38-1.55.55-2.53.51s-1.79-.26-2.45-.68c-.29-.18-.46-.59-.52-1.22-.06-.63,0-1.33.19-2.09.18-.77.43-1.52.74-2.25.31-.73.7-1.32,1.17-1.78s.95-.65,1.44-.58c.24.04.44.02.61-.06.17-.08.33-.19.46-.32.14-.14.3-.27.47-.41s.44-.25.78-.34c.34-.09.74-.13,1.2-.12.53.02.97.21,1.34.57.37.36.58.77.63,1.21.04.26.02.56-.05.92-.07.36-.16.68-.26.96-.1.28-.15.44-.15.45.14.05.3.08.47.09s.36,0,.57-.03c.21-.04.43-.13.67-.27.24-.14.46-.33.67-.57Zm-7.04,4.97c.26.07.54.03.82-.12.28-.15.53-.35.74-.59.21-.24.42-.54.63-.89.21-.35.37-.64.47-.87s.2-.46.3-.67c-.2-.04-.38-.08-.55-.13-.17-.05-.35-.13-.53-.23-.18-.1-.33-.22-.42-.35s-.14-.3-.14-.51c0-.21.08-.44.23-.69.09-.16.28-.28.57-.35.29-.07.58-.09.89-.07.3.02.55.08.75.16.13-.48.15-.92.06-1.33-.09-.41-.28-.65-.55-.72h-.02c-.22-.03-.5.12-.82.44-.32.32-.63.73-.94,1.24-.3.5-.59,1.06-.87,1.67-.28.61-.49,1.19-.64,1.74-.15.55-.24,1.04-.27,1.46-.03.42.07.68.3.8Z" fill="#07a968" stroke-width="0"/>
        <path d="m138.03,70.74s.12-.06.23-.06.22.02.33.05.15.07.14.1c-.18.33-.44.62-.76.87-.32.25-.64.43-.97.54-.32.11-.63.21-.94.27s-.55.12-.75.14-.3.05-.32.07c-.36.95-.72,1.77-1.1,2.44-.37.68-.72,1.21-1.04,1.59-.32.38-.67.67-1.06.88-.38.21-.73.33-1.04.38-.31.05-.67.07-1.08.05-1.03-.06-1.72-.35-2.07-.87-.35-.52-.47-1.28-.35-2.27-.87.82-1.43,1.25-1.68,1.3-.5.12-.95.18-1.35.18s-.73-.05-1-.14c-.26-.1-.49-.23-.67-.41-.18-.17-.32-.38-.42-.6-.09-.23-.15-.48-.19-.75-.03-.27-.04-.54-.02-.81.02-.27.06-.54.12-.82.06-.28.12-.53.19-.76.07-.23.14-.44.24-.65.03-.08.18-.47.47-1.15.29-.69.56-1.3.8-1.83s.44-.92.6-1.16c.33-.51.8-.67,1.42-.48.53.17.93.49,1.2.98.22.4.26.78.12,1.13-1.16,3.06-1.78,4.97-1.85,5.73-.05.43.01.64.2.62.07,0,.32-.18.76-.58.44-.39.9-.83,1.37-1.3.82-2.33,1.72-4.45,2.72-6.33.01-.04.14-.08.39-.11s.53-.02.84.02c.31.04.6.14.87.31.27.17.44.41.52.74.08.33,0,.78-.24,1.35,0,0-.06.15-.18.42-.12.27-.23.53-.33.78-.11.25-.24.58-.42,1-.17.41-.32.8-.45,1.15-.13.36-.27.74-.41,1.16-.14.42-.24.79-.31,1.12-.07.33-.11.64-.13.92s0,.51.09.67.2.25.38.27c.2.02.39-.06.59-.23.2-.17.39-.43.59-.79.2-.36.38-.7.53-1.02.16-.33.35-.74.56-1.24.22-.5.38-.88.5-1.13-.97-.43-1.24-1.17-.81-2.21.13-.28.4-.47.82-.56.41-.09.79-.07,1.13.05.5-1.25.8-2.01.89-2.27.07-.22-.03-.35-.3-.4-.33-.1-.34-.22-.04-.36.39-.17.83-.23,1.3-.18.64.07.86.36.65.87-.18.43-.77,1.86-1.76,4.29.3.04.72-.03,1.26-.21s.93-.42,1.16-.74Z" fill="#07a968" stroke-width="0"/>
        <path d="m141.66,72.52c.59.77.95,1.28,1.08,1.54.25.51.3.95.14,1.32-.2.48-.74.79-1.64.95-.82.14-1.75.12-2.8-.05-.41-.06-.76-.14-1.05-.23-.49-.15-.87-.39-1.14-.74-.18-.23-.06-.34.38-.34.39,0,.72.07.99.22.21.12.38.2.49.25.34.11.61.15.81.11.2-.04.35-.15.45-.34.14-.25.15-.55.02-.92-.11-.32-.32-.69-.63-1.1-.09-.12-.26-.33-.49-.63-.24-.3-.43-.56-.59-.78-.16-.22-.3-.44-.41-.66h-.06c0-.07,0-.12-.02-.16-.04-.16-.11-.29-.2-.41.01-.03.02-.06.02-.1-.37-1.4.49-2.57,2.56-3.5,1.04-.46,2.26-.51,3.65-.15.39.1.7.25.91.44.1.09.22.11.35.04.4-.17.84-.17,1.34-.03.21.05.3.15.26.27-.21.77-.86,1.66-1.93,2.67-.39.38-.96.5-1.7.38-.83-.13-1.14-.42-.95-.88.24-.53.67-1.09,1.3-1.66.12-.1.12-.2,0-.3-.05-.04-.11-.09-.18-.15-.16-.13-.27-.19-.33-.19s-.2.07-.42.22c-.04.03-.07.05-.08.05-1.3.87-1.7,1.94-1.2,3.2.18.47.54,1.03,1.07,1.69Z" fill="#07a968" stroke-width="0"/>
        <path d="m154.72,71.22c.12-.1.32-.11.61-.03.17.06.22.13.14.19-.37.34-.82.76-1.34,1.27-.53.51-.95.92-1.26,1.23-.32.31-.69.65-1.13,1.01-.44.36-.84.64-1.18.84-.35.2-.75.36-1.19.49-.45.13-.89.18-1.34.17-1.68-.05-2.76-.65-3.24-1.79-.45-1.08-.3-2.35.43-3.82.72-1.44,1.76-2.55,3.12-3.34,1.21-.71,2.46-1,3.75-.87.42.05.73.18.94.39s.3.48.29.8-.08.65-.19.97c-.11.33-.27.66-.46.99-.28.49-.61.94-1.01,1.33s-.76.69-1.1.9c-.34.21-.68.38-1.01.52-.33.14-.58.23-.75.27s-.28.06-.32.05c-.18.2-.32.63-.39,1.28-.08.65-.05,1.02.1,1.1.14.1.32.16.52.16.2,0,.43-.03.68-.12s.51-.21.77-.34c.26-.14.55-.32.85-.54s.58-.43.85-.63c.26-.2.55-.44.86-.7.31-.27.57-.49.78-.68.21-.19.44-.4.7-.62.26-.23.44-.39.54-.49Zm-2.78-3.38c-.46.15-.98.6-1.56,1.37-.58.77-1.08,1.64-1.52,2.62.29-.07.58-.2.86-.38s.54-.38.77-.61c.23-.23.44-.47.64-.73.2-.26.36-.52.5-.77.14-.25.24-.49.32-.7s.11-.39.11-.54-.04-.23-.12-.27Z" fill="#07a968" stroke-width="0"/>
        <path d="m160.5,71.32c-.09-.03.03-.54.38-1.54.34-1,.43-1.53.28-1.59-.25.1-.61.6-1.09,1.5s-1.04,1.98-1.71,3.25c-.67,1.27-1.27,2.25-1.83,2.95-.16.21-.44.35-.84.43s-.81.09-1.21.05c-.95-.1-1.54-.42-1.79-.95-.24-.53-.19-1.26.15-2.2.08-.24.22-.67.42-1.29.2-.62.38-1.15.52-1.59s.3-.91.46-1.42c.16-.5.29-.9.37-1.18.08-.28.11-.43.1-.45-.08-.09-.02-.19.19-.31.2-.11.4-.2.6-.25.26-.07.57-.11.93-.12.35,0,.69.01,1.01.07.32.06.57.16.75.32.18.16.24.35.18.57-.21.7-.59,1.7-1.12,3.02s-.96,2.38-1.25,3.19-.37,1.22-.23,1.23c.08,0,.46-.61,1.15-1.85.69-1.24,1.36-2.48,2-3.73.03-.04.07-.12.12-.23.1-.19.19-.34.25-.46.06-.11.15-.28.28-.49s.24-.38.35-.5c.1-.12.24-.27.41-.44.17-.17.33-.3.48-.38s.33-.17.55-.23c.22-.07.44-.1.66-.08.22.01.47.06.75.14.28.08.57.21.87.37.58.33.78,1.05.61,2.16-.08.23-.18.46-.32.69-.13.23-.31.46-.53.71-.22.24-.47.43-.75.56s-.6.22-.97.27-.76-.01-1.18-.18Z" fill="#07a968" stroke-width="0"/>
      </g>
    </g>
  </g>
</svg>